<?xml version="1.0" encoding="utf-8"?>
<!-- Generator: Adobe Illustrator 21.1.0, SVG Export Plug-In . SVG Version: 6.00 Build 0)  -->
<svg version="1.1" id="Layer_1" xmlns="http://www.w3.org/2000/svg" xmlns:xlink="http://www.w3.org/1999/xlink" x="0px" y="0px"
	 viewBox="0 0 360 180" style="enable-background:new 0 0 360 180;" xml:space="preserve">
<style type="text/css">
	.st0{fill:none;}
</style>
<title>better-world-books</title>
<g id="Page-1">
	<g id="_x31_---Case-Studies" transform="translate(-187.000000, -521.000000)">
		<g id="better-world-books" transform="translate(140.000000, 436.000000)">
			<rect id="Rectangle-4" x="47" y="62.5" class="st0" width="360" height="225"/>
			<g id="Shape" transform="translate(47.000000, 85.000000)">
				<path d="M57.7,89.1c5.5,0,8,2.2,8,6.2c0,1.9-0.5,3.5-2.8,4.8c2,0.7,3.5,2.6,3.5,5.5c0,3.5-1.8,7.2-8.8,7.2H47V89.2h10.7V89.1z
					 M51.8,98.3h5.7c2.3,0,3.3-0.8,3.3-2.6c0-1.6-0.9-2.5-4-2.5h-5V98.3z M51.8,108.5h5.7c2.6,0,3.9-0.9,3.9-3.3
					c0-1.8-1.2-2.8-3.7-2.8h-5.8L51.8,108.5L51.8,108.5L51.8,108.5z"/>
				<path d="M76.7,94.7c5.2,0,8.5,3.2,8.2,10.5H73.2c0.1,2.4,1.3,4.2,3.8,4.2c1.2,0,2.5-0.4,3.1-1.8h4.8c-0.3,3-3.1,5.6-7.9,5.6
					c-4,0-8.5-2.4-8.5-9.2C68.5,98.3,72,94.7,76.7,94.7z M80.1,102.2c-0.1-2.2-1.3-3.5-3.4-3.5c-2,0-3.1,1.3-3.4,3.5H80.1z"/>
				<path d="M88.3,95.4v-4.9h4.6v4.9h2.8v3.3h-2.8v9c0,1.5,0.3,1.6,2,1.6c0.3,0,0.6,0,0.9-0.1v3.5c-0.7,0.1-1.5,0.1-2.1,0.1
					c-3.8,0-5.3-0.8-5.3-3.5V98.6H86v-3.3L88.3,95.4L88.3,95.4z"/>
				<path d="M99.5,95.4v-4.9h4.6v4.9h2.8v3.3h-2.8v9c0,1.5,0.3,1.6,2,1.6c0.3,0,0.6,0,0.9-0.1v3.5c-0.7,0.1-1.5,0.1-2.1,0.1
					c-3.8,0-5.3-0.8-5.3-3.5V98.6h-2.4v-3.3L99.5,95.4L99.5,95.4z"/>
				<path d="M116.1,94.7c5.2,0,8.5,3.2,8.2,10.5h-11.8c0.1,2.4,1.3,4.2,3.8,4.2c1.2,0,2.5-0.4,3.1-1.8h4.8c-0.3,3-3.1,5.6-7.9,5.6
					c-4,0-8.5-2.4-8.5-9.2C108,98.3,111.4,94.7,116.1,94.7z M119.6,102.2c-0.1-2.2-1.3-3.5-3.4-3.5c-2,0-3.1,1.3-3.4,3.5H119.6z"/>
				<path d="M131.5,95.2v3c1.5-2.7,3-3.5,5.2-3.5c0.2,0,0.4,0,0.6,0.1v4.9c-0.5-0.1-0.9-0.1-1.3-0.1c-3,0-4.2,1.5-4.2,5v8.1h-4.7
					V95.2H131.5z"/>
				<polygon points="143.2,89.1 146.3,102.4 146.9,106.2 147.6,102.5 150.1,89.1 155.4,89.1 158,102.4 158.7,106.2 159.4,102.5 
					162.5,89.1 167.6,89.1 161,112.7 156.2,112.7 153.5,99.2 152.7,94.4 151.9,99.2 149.2,112.7 144.6,112.7 137.9,89.1 				"/>
				<path d="M176.5,94.7c5.7,0,8.9,3.6,8.9,9.4c0,5.3-3,9.3-8.9,9.3c-5.6,0-9-3.8-9-9.4C167.6,98.6,170.7,94.7,176.5,94.7z
					 M176.5,109.3c2.5,0,4-1.9,4-5.3c0-3.6-1.6-5.4-4-5.4c-1.9,0-4,0.9-4,5.3C172.5,107.6,174,109.3,176.5,109.3z"/>
				<path d="M192.6,95.2v3c1.5-2.7,3-3.5,5.2-3.5c0.2,0,0.4,0,0.6,0.1v4.9c-0.5-0.1-0.9-0.1-1.3-0.1c-3,0-4.2,1.5-4.2,5v8.1h-4.8
					V95.2H192.6z"/>
				<path d="M206.4,109.4c0.3,0,0.6,0,0.9-0.1v3.5c-0.7,0.1-1.5,0.1-2.1,0.1c-3.5,0-4.7-2.1-4.7-4.5V89.1h4.7v18.7
					C205.1,108.9,205.7,109.4,206.4,109.4z"/>
				<path d="M215.9,94.8c1.9-0.1,3.8,1,4.8,2.6v-8.3h4.8v23.6h-4.6v-2.4c-1,1.9-3.1,3.1-5.3,3c-3.7,0-7.2-3.3-7.2-8.9
					C208.4,98.3,211.5,94.8,215.9,94.8z M216.9,109.3c2.1,0,3.8-1.5,3.8-5c0-3.4-1.5-5.3-3.8-5.3s-3.7,1.7-3.7,5.1
					C213.2,107.8,214.8,109.3,216.9,109.3z"/>
				<path d="M240,89.2c4.8,0,7.4,2.1,7.4,5.9c0,2.2-0.8,3.8-3.1,5c2.9,1.1,4.2,2.9,4.2,5.8c0,4-3,6.9-8.2,6.9h-10V89.2
					C230.3,89.2,240,89.2,240,89.2z M233.6,99h5.7c3.3,0,4.6-1.2,4.6-3.6s-1.2-3.4-4.7-3.4h-5.7L233.6,99L233.6,99z M233.6,109.8
					h6.7c3,0,4.8-1.5,4.8-4.2c0-2.4-1.5-3.8-5.3-3.8h-6.2V109.8z"/>
				<path d="M258.1,95c4.2,0,7.9,2.7,7.9,8.9c0,5-2.2,9.5-8.2,9.5c-4.1,0-7.8-2.6-7.8-8.9C250,99.1,252.8,95,258.1,95z M258,110.6
					c3.5,0,4.8-2.9,4.8-6.7c0-4.5-2-6.2-4.8-6.2c-2.8,0-4.9,1.9-4.9,6.7C253.2,109.1,255.4,110.6,258,110.6z"/>
				<path d="M275.7,95c4.2,0,7.9,2.7,7.9,8.9c0,5-2.2,9.5-8.2,9.5c-4.1,0-7.8-2.6-7.8-8.9C267.5,99.1,270.3,95,275.7,95z
					 M275.6,110.6c3.5,0,4.8-2.9,4.8-6.7c0-4.5-2-6.2-4.8-6.2s-4.9,1.9-4.9,6.7C270.7,109.1,272.9,110.6,275.6,110.6z"/>
				<polygon points="288.9,89.2 288.9,102.7 296,95.5 300,95.5 293.5,102 300.3,112.7 296.4,112.7 291.2,104.2 288.9,106.4 
					288.9,112.7 285.9,112.7 285.9,89.2 				"/>
				<path d="M307.3,95c4.2,0,6.6,2.2,6.7,5.4h-3c-0.1-1.7-1.3-2.8-3.9-2.8c-2,0-3.2,0.8-3.2,2.2c0,1.1,0.6,1.9,2.9,2.3l2,0.5
					c4.5,1.1,5.7,2.3,5.7,5c0,3.2-2.4,5.6-7.1,5.6c-3.9,0-7-1.4-7.2-6.1h3c0.2,2.2,1.4,3.5,4.4,3.5c2.3,0,3.8-1,3.8-2.7
					c0-1.2-0.5-1.7-3.3-2.4l-2.3-0.6c-3.4-0.9-5.1-2.1-5.1-4.6C300.7,97,303.6,95,307.3,95z"/>
				<path class="st0" d="M138.6,82.4l-0.8-5.6L138.6,82.4L138.6,82.4l-1.3-9.1l-1.8,0.4l1.8,7.8l-0.6-2.6l0.6,2.6l0.3,1.2
					C137.9,82.5,138.2,82.5,138.6,82.4z"/>
				<path d="M151.9,63.1c-4.4-0.4-15.8-0.3-16,9c-2-3.3-5-3.9-7.6-3.5c-3.5,0.6-6.9,3.5-8.9,5.5c-2,1.3-3.1,2.6-3.1,2.6
					c7,2.7,11.1,5.4,14.2,10.1c1.9-2.1,4.3-3.5,7-4.2l-0.3-1.2l-1.8-7.8l1.8-0.4l1.3,9.1l0,0l0,0c0.9-0.2,1.7-0.2,2.6-0.2
					c1.6,0,3.2,0.3,4.8,0.8c1.3-7.4,4.8-14.1,9.1-20.3C154,62.8,153,62.9,151.9,63.1z"/>
			</g>
		</g>
	</g>
</g>
</svg>
