<?xml version="1.0" encoding="utf-8"?>
<!-- Generator: Adobe Illustrator 21.1.0, SVG Export Plug-In . SVG Version: 6.00 Build 0)  -->
<svg version="1.1" id="Layer_1" xmlns="http://www.w3.org/2000/svg" xmlns:xlink="http://www.w3.org/1999/xlink" x="0px" y="0px"
	 viewBox="0 0 360 180" style="enable-background:new 0 0 360 180;" xml:space="preserve">
<title>general-assembly</title>
<path id="path22" d="M160.8,55.6c1.2,0,2.5,0.2,3.6,0.6c1,0.4,1.8,1,2.6,1.7c0.7,0.8,1.2,1.6,1.4,2.6c0.3,1.1,0.4,2.1,0.3,3.3
	l-6,1.1c0-0.9-0.2-1.6-0.6-2.3c-0.3-0.6-0.9-1-1.4-1c-0.4,0-0.7,0.1-1,0.3c-0.3,0.2-0.5,0.4-0.6,0.6c-0.2,0.3-0.3,0.5-0.3,0.8
	c-0.1,0.3-0.1,0.5-0.1,0.8v16.2c0,0.4,0.1,0.9,0.3,1.2c0.2,0.4,0.7,0.6,1.4,0.6c0.5,0,1.1-0.2,1.4-0.5c0.4-0.3,0.6-0.8,0.6-1.2v-4.9
	h-2v-5.5h8.3v10c0,2.6-0.7,4.6-2,6s-3.4,2-5.9,2c-2.8,0-4.9-0.7-6.1-2c-1.2-1.3-1.9-3.4-1.9-6V63.9c0-2.5,0.7-4.5,2.1-6
	C156.2,56.3,158.1,55.6,160.8,55.6"/>
<polygon id="path26" points="171.3,87.5 171.3,55.8 185.8,55.8 185.8,61.7 177.4,61.7 177.4,68.5 184.7,68.5 184.7,74.4 177.4,74.4 
	177.4,81.7 185.8,81.7 185.8,87.5 "/>
<polygon id="path30" points="199.3,70.8 199.3,55.8 205.3,55.8 205.3,87.5 200.1,87.5 196.4,78.3 194.2,72.3 194,72.3 194,87.5 
	187.9,87.5 187.9,55.8 193.3,55.8 196.9,65 199,70.8 "/>
<polygon id="path34" points="208.6,87.5 208.6,55.8 223,55.8 223,61.7 214.8,61.7 214.8,68.5 222,68.5 222,74.4 214.8,74.4 
	214.8,81.7 223,81.7 223,87.5 "/>
<path id="path38" d="M231.4,61.7v7.5h1c0.4,0,0.9-0.1,1.2-0.2c0.4-0.1,0.8-0.3,1.1-0.6c0.4-0.4,0.6-0.8,0.8-1.2
	c0.2-0.7,0.3-1.3,0.3-2c0-1.2-0.3-2.1-0.9-2.7c-0.6-0.6-1.4-0.9-2.3-0.9L231.4,61.7L231.4,61.7z M232.7,55.8c1.2,0,2.4,0.2,3.6,0.5
	c1.1,0.3,2,0.9,2.8,1.6c0.9,0.9,1.4,1.8,1.8,2.9c0.5,1.4,0.7,2.9,0.7,4.4c0.1,1.8-0.2,3.6-0.9,5.3c-0.6,1.3-1.4,2.5-2.6,3.3
	l4.5,13.8h-6.2l-3.6-12.4h-1.2v12.4h-6.1V55.8H232.7z"/>
<path id="path42" d="M251.3,70.5l-0.7,5.1h2.9l-0.6-5.1l-0.7-6.4H252L251.3,70.5z M254.4,81.4h-4.6l-1,6.2h-6.4l6-31.8h7.5l6,31.8
	h-6.4L254.4,81.4z"/>
<polygon id="path46" points="263.4,87.5 263.4,55.8 269.6,55.8 269.6,81.7 277.8,81.7 277.8,87.5 "/>
<path id="path50" d="M159.7,108.5l-0.7,5.1h2.9l-0.6-5.1l-0.7-6.4h-0.3L159.7,108.5z M162.7,119.4h-4.6l-1,6.2h-6.4l6-31.8h7.5
	l6,31.8h-6.5L162.7,119.4z"/>
<path id="path54" d="M187.3,116.2c0,1.3-0.1,2.7-0.4,3.9c-0.2,1.1-0.7,2.1-1.3,3.1c-0.7,0.9-1.5,1.5-2.5,1.9
	c-1.2,0.5-2.6,0.8-3.9,0.7c-1.2,0-2.5-0.2-3.7-0.7c-1-0.4-1.8-1-2.5-1.7c-0.7-0.8-1.2-1.6-1.4-2.6c-0.3-1.1-0.5-2.1-0.5-3.2l6.1-1.2
	c0,0.9,0.2,1.8,0.5,2.6c0.3,0.4,0.7,0.8,1.2,0.9c0.5,0.1,1.1,0,1.4-0.3c0.3-0.2,0.5-0.5,0.6-0.9c0.2-0.4,0.2-0.8,0.3-1.2
	c0-0.5,0.1-1,0.1-1.3c0-0.6,0-1.1-0.1-1.6c-0.1-0.4-0.2-0.8-0.5-1.1c-0.3-0.3-0.6-0.6-1-0.8c-0.5-0.3-1-0.5-1.4-0.7
	c-1.3-0.5-2.6-1.2-3.7-2c-0.9-0.6-1.5-1.3-2.1-2.2c-0.5-0.8-0.9-1.5-1-2.5c-0.2-1-0.2-1.9-0.2-2.9c0-1.2,0.1-2.5,0.5-3.6
	c0.3-1.1,0.8-2,1.4-2.9c0.7-0.9,1.5-1.4,2.5-1.8c1.2-0.5,2.5-0.8,3.7-0.7c1.3,0,2.7,0.2,3.8,0.8c1,0.5,1.7,1.1,2.4,1.9
	c0.6,0.8,1,1.6,1.2,2.6c0.2,0.9,0.4,1.8,0.4,2.8l-6,1.3c0-0.4,0-0.9-0.1-1.2c0-0.4-0.1-0.8-0.3-1.1c-0.1-0.3-0.4-0.6-0.6-0.8
	c-0.3-0.2-0.7-0.3-1.1-0.3s-0.7,0.1-1,0.3c-0.2,0.2-0.4,0.5-0.6,0.8c-0.1,0.3-0.2,0.7-0.3,1c0,0.4-0.1,0.7-0.1,1.1
	c0,0.4,0,0.8,0.1,1.2c0.1,0.4,0.2,0.7,0.5,1c0.3,0.4,0.7,0.7,1.1,0.9c0.7,0.4,1.2,0.7,1.9,1c1.2,0.5,2.4,1.1,3.5,1.8
	c1.5,1.1,2.6,2.8,2.8,4.7C187.3,114.1,187.3,115.2,187.3,116.2"/>
<path id="path58" d="M205.6,116.2c0,1.3-0.1,2.7-0.4,3.9c-0.2,1.1-0.7,2.1-1.3,3.1c-0.7,0.9-1.5,1.5-2.5,1.9
	c-1.2,0.5-2.6,0.8-3.9,0.7c-1.2,0-2.5-0.2-3.7-0.7c-1-0.4-1.8-1-2.5-1.7c-0.7-0.8-1.2-1.6-1.4-2.6c-0.3-1.1-0.5-2.1-0.5-3.2l6.1-1.2
	c0,0.9,0.2,1.8,0.5,2.6c0.3,0.4,0.7,0.8,1.2,0.9c0.6,0.1,1.1,0,1.4-0.3c0.3-0.2,0.5-0.5,0.6-0.9c0.2-0.4,0.2-0.8,0.3-1.2
	c0-0.5,0.1-1,0.1-1.3c0-0.6,0-1.1-0.1-1.6c-0.1-0.4-0.2-0.8-0.5-1.1c-0.3-0.3-0.6-0.6-1-0.8c-0.5-0.3-1-0.5-1.4-0.7
	c-1.3-0.5-2.6-1.2-3.7-2c-0.9-0.6-1.5-1.3-2.1-2.2c-0.5-0.8-0.9-1.5-1-2.5c-0.2-1-0.2-1.9-0.2-2.9c0-1.2,0.1-2.5,0.5-3.6
	c0.3-1.1,0.8-2,1.4-2.9c0.7-0.9,1.5-1.4,2.5-1.8c1.2-0.5,2.5-0.7,3.7-0.7c1.3,0,2.7,0.2,3.8,0.8c1,0.5,1.7,1.1,2.4,1.9
	c0.6,0.8,1,1.6,1.2,2.6c0.2,0.9,0.4,1.8,0.4,2.8l-6,1.3c0-0.4,0-0.9-0.1-1.2c0-0.4-0.1-0.8-0.3-1.1c-0.1-0.3-0.4-0.6-0.6-0.8
	c-0.3-0.2-0.7-0.3-1.1-0.3c-0.4,0-0.7,0.1-1,0.3c-0.2,0.2-0.4,0.5-0.6,0.8c-0.1,0.3-0.2,0.7-0.3,1c0,0.4-0.1,0.7-0.1,1.1
	c0,0.4,0,0.8,0.1,1.2c0.1,0.4,0.2,0.7,0.5,1c0.3,0.4,0.7,0.7,1.1,0.9c0.7,0.4,1.3,0.7,2,0.9c1.2,0.5,2.4,1.1,3.5,1.8
	c1.5,1.1,2.6,2.8,2.8,4.7C205.5,114,205.6,115.2,205.6,116.2"/>
<polygon id="path62" points="208,125.7 208,93.9 222.4,93.9 222.4,99.8 214.2,99.8 214.2,106.5 221.4,106.5 221.4,112.5 
	214.2,112.5 214.2,119.7 222.4,119.7 222.4,125.7 "/>
<polygon id="path66" points="233.6,119.4 232.2,115.4 230.8,110.7 230.6,110.7 230.6,125.7 224.5,125.7 224.5,93.9 230.2,93.9 
	233.3,102.3 235.4,108.7 235.7,108.7 237.9,102.2 241,93.9 246.6,93.9 246.6,125.7 240.5,125.7 240.5,110.8 240.4,110.8 
	238.9,115.7 237.6,119.4 "/>
<path id="path70" d="M259.8,115.3c0-1.2-0.2-2.2-0.7-2.7c-0.5-0.6-1.2-0.9-1.9-0.8H256v7.9h1.1c0.5,0,1-0.1,1.3-0.4
	c0.4-0.2,0.7-0.6,0.8-1c0.2-0.5,0.4-0.9,0.4-1.3C259.8,116.4,259.8,115.9,259.8,115.3L259.8,115.3z M259.5,102.9
	c0-1.2-0.2-2.1-0.7-2.5c-0.7-0.5-1.4-0.7-2.2-0.6H256v6.3h0.8C258.6,106.1,259.5,105,259.5,102.9z M261.9,109
	c0.7,0.2,1.2,0.6,1.8,1.1c0.5,0.5,0.9,1,1.2,1.5c0.3,0.6,0.5,1.2,0.6,1.9s0.2,1.4,0.2,2.1c0,3.5-0.8,6-2.2,7.5
	c-1.4,1.6-3.6,2.4-6.6,2.4h-6.9V93.8h7.1c2.8,0,4.9,0.8,6.3,2.2c1.4,1.5,2.1,3.6,2.1,6.6c0,0.7-0.1,1.2-0.2,1.9
	c-0.1,0.6-0.3,1.2-0.6,1.7c-0.3,0.6-0.7,1.1-1.1,1.4c-0.5,0.4-1,0.8-1.5,1L261.9,109z"/>
<polygon id="path74" points="268.9,125.7 268.9,93.9 275.1,93.9 275.1,119.7 283.3,119.7 283.3,125.7 "/>
<polygon id="path78" points="289.8,105.4 291,100.1 292.3,93.9 298.9,93.9 292.7,112.7 292.7,125.7 286.6,125.7 286.6,112.7 
	280.4,93.9 287,93.9 288.5,100.2 289.6,105.4 "/>
<path id="path82" d="M110.3,90.5c-1.4,0-2.7,0.9-3.3,2.1s-0.3,2.9,0.8,3.8c1,1.1,2.5,1.3,3.8,0.8s2.2-1.8,2.2-3.3c0-1-0.4-1.8-1-2.5
	C112.1,90.9,111.3,90.5,110.3,90.5"/>
<path id="path86" d="M113.7,114.1l-1.4-11.3h-3.7l-1.4,11.3h-6.6l6-46.5h7.6l6.1,46.5H113.7z M98.9,83h-6.2v-7c0-0.3,0-0.5-0.1-0.8
	c-0.1-0.3-0.2-0.6-0.3-0.9c-0.2-0.3-0.4-0.5-0.6-0.7c-0.3-0.2-0.7-0.3-1.1-0.3h-0.1l0,0c-0.4,0-0.8,0.1-1.1,0.3
	c-0.3,0.2-0.5,0.4-0.6,0.7c-0.1,0.3-0.2,0.6-0.3,0.9c-0.1,0.3-0.1,0.5-0.1,0.8v30.4c0,0.5,0.1,0.9,0.3,1.2c0.2,0.4,0.7,0.6,1.4,0.6
	c0.6,0,1.1-0.2,1.4-0.5s0.6-0.8,0.6-1.2v-8.7h-1.3v-5.6h7.6v14c0,2.7-0.7,4.7-2.1,6.1c-1.4,1.3-3.4,2.1-6,2.1c-2.9,0-5-0.7-6.3-2.1
	c-1.3-1.3-2-3.5-2-6.2V76c0-2.6,0.7-4.7,2.1-6.2c1.4-1.5,3.5-2.3,6.1-2.4c2.7,0,4.8,0.8,6.1,2.4c1.4,1.5,2.1,3.6,2.1,6.2L98.9,83z
	 M135.9,90.9c0-2.7,2.1-4.8,4.8-4.8l-1.2-6c-2.4,1.1-5.2-0.2-6.2-2.6c-1-2.5,0.2-5.3,2.6-6.3l-3.4-5.1c-1.2,1.2-3,1.7-4.6,1.2
	c-1.6-0.5-3-1.7-3.4-3.4c-0.5-1.6,0-3.5,1.2-4.6l-5-3.4c-1,2.5-3.8,3.6-6.2,2.6c-2.4-1.1-3.6-3.8-2.6-6.3l-5.9-1.2
	c0,2.7-2.1,4.8-4.8,4.8c-2.6,0-4.8-2.1-4.8-4.8l-5.9,1.2c0.7,1.6,0.4,3.4-0.6,4.8c-1.1,1.3-2.7,2.1-4.4,1.8
	c-1.7-0.3-3.2-1.3-3.7-2.9l-5,3.4c1.2,1.2,1.8,3,1.3,4.7c-0.4,1.7-1.7,3.1-3.5,3.5c-1.7,0.5-3.5-0.1-4.7-1.3l-3.4,5
	c2.4,1.1,3.6,3.8,2.6,6.3c-1,2.5-3.8,3.6-6.2,2.6l-1.2,6c2.6,0,4.8,2.1,4.8,4.8s-2.1,4.8-4.8,4.8l1.2,6c2.4-1.1,5.2,0.2,6.2,2.6
	c1,2.5-0.2,5.3-2.6,6.3l3.4,5c1.2-1.2,3-1.7,4.6-1.3c1.6,0.5,3,1.7,3.4,3.5s-0.1,3.5-1.3,4.7l5,3.4c1.1-2.4,3.7-3.6,6.1-2.5
	c2.4,1,3.6,3.7,2.6,6.2l5.9,1.2c0.1-2.6,2.2-4.7,4.8-4.7s4.7,2,4.8,4.7l5.9-1.2c-1-2.5,0.2-5.3,2.6-6.3s5.2,0.2,6.2,2.6l5-3.4
	c-1.2-1.2-1.7-3-1.3-4.7c0.5-1.7,1.7-3,3.4-3.5c1.6-0.5,3.5,0.1,4.6,1.3l3.4-5.1c-1.5-0.7-2.7-2.1-2.9-3.8c-0.2-1.7,0.5-3.4,1.8-4.4
	s3.2-1.2,4.7-0.7l1.2-6C138,95.7,135.9,93.5,135.9,90.9L135.9,90.9z"/>
</svg>
