<?xml version="1.0" encoding="utf-8"?>
<!-- Generator: Adobe Illustrator 21.1.0, SVG Export Plug-In . SVG Version: 6.00 Build 0)  -->
<svg version="1.1" id="Layer_1" xmlns="http://www.w3.org/2000/svg" xmlns:xlink="http://www.w3.org/1999/xlink" x="0px" y="0px"
	 viewBox="0 0 360 180" style="enable-background:new 0 0 360 180;" xml:space="preserve">
<style type="text/css">
	.st0{fill:none;}
</style>
<title>general-assembly</title>
<g id="Page-1">
	<g id="_x31_---Case-Studies" transform="translate(-997.000000, -508.000000)">
		<g id="general-assembly" transform="translate(940.000000, 436.000000)">
			<rect id="Rectangle-4" x="57" y="49.5" class="st0" width="360" height="225"/>
			<g transform="translate(57.000000, 72.000000)">
				<path id="path22" d="M160,54.1c1.3,0,2.6,0.2,3.8,0.6c1,0.4,1.9,1,2.7,1.8c0.7,0.8,1.2,1.7,1.5,2.7c0.3,1.1,0.4,2.2,0.3,3.4
					l-6.2,1.1c0-0.9-0.2-1.7-0.6-2.4c-0.3-0.6-0.9-1-1.5-1c-0.4,0-0.7,0.1-1,0.3c-0.3,0.2-0.5,0.4-0.6,0.6c-0.2,0.3-0.3,0.5-0.3,0.8
					c-0.1,0.3-0.1,0.5-0.1,0.8v16.9c0,0.4,0.1,0.9,0.3,1.3s0.7,0.6,1.5,0.6c0.5,0,1.1-0.2,1.5-0.5s0.6-0.8,0.6-1.3v-5.1h-2.1V69h8.6
					v10.4c0,2.7-0.7,4.8-2.1,6.2s-3.5,2.1-6.1,2.1c-2.9,0-5.1-0.7-6.4-2.1c-1.3-1.4-2-3.5-2-6.3V62.8c0-2.6,0.7-4.7,2.2-6.3
					C155.2,54.9,157.2,54.1,160,54.1"/>
				<polygon id="path26" points="170.9,87.4 170.9,54.3 186,54.3 186,60.5 177.3,60.5 177.3,67.6 184.9,67.6 184.9,73.7 177.3,73.7 
					177.3,81.3 186,81.3 186,87.4 				"/>
				<polygon id="path30" points="200.1,70 200.1,54.3 206.3,54.3 206.3,87.4 200.9,87.4 197.1,77.8 194.8,71.5 194.6,71.5 
					194.6,87.4 188.2,87.4 188.2,54.3 193.8,54.3 197.6,63.9 199.8,70 				"/>
				<polygon id="path34" points="209.8,87.4 209.8,54.3 224.8,54.3 224.8,60.5 216.2,60.5 216.2,67.6 223.7,67.6 223.7,73.7 
					216.2,73.7 216.2,81.3 224.8,81.3 224.8,87.4 				"/>
				<path id="path38" d="M233.5,60.5v7.8h1c0.4,0,0.9-0.1,1.3-0.2c0.4-0.1,0.8-0.3,1.1-0.6c0.4-0.4,0.6-0.8,0.8-1.3
					c0.2-0.7,0.3-1.4,0.3-2.1c0-1.3-0.3-2.2-0.9-2.8c-0.6-0.6-1.5-0.9-2.4-0.9L233.5,60.5L233.5,60.5z M234.9,54.3
					c1.3,0,2.5,0.2,3.7,0.5c1.1,0.3,2.1,0.9,2.9,1.7c0.9,0.9,1.5,1.9,1.9,3c0.5,1.5,0.7,3,0.7,4.6c0.1,1.9-0.2,3.8-0.9,5.5
					c-0.6,1.4-1.5,2.6-2.7,3.4l4.7,14.4h-6.5l-3.8-12.9h-1.3v12.9h-6.4V54.3H234.9z"/>
				<path id="path42" d="M254.3,69.6l-0.7,5.3h3l-0.6-5.3l-0.7-6.7H255L254.3,69.6z M257.5,81h-4.8l-1,6.5H245l6.2-33.1h7.8
					l6.3,33.1h-6.7L257.5,81z"/>
				<polygon id="path46" points="266.9,87.4 266.9,54.3 273.3,54.3 273.3,81.3 281.9,81.3 281.9,87.4 				"/>
				<path id="path50" d="M158.8,109.2l-0.7,5.3h3l-0.6-5.3l-0.7-6.7h-0.3L158.8,109.2z M162,120.6h-4.8l-1,6.5h-6.7l6.2-33.1h7.8
					l6.3,33.1H163L162,120.6z"/>
				<path id="path54" d="M187.6,117.3c0,1.4-0.1,2.8-0.4,4.1c-0.2,1.1-0.7,2.2-1.4,3.2c-0.7,0.9-1.6,1.6-2.6,2
					c-1.3,0.5-2.7,0.8-4.1,0.7c-1.3,0-2.6-0.2-3.9-0.7c-1-0.4-1.9-1-2.6-1.8c-0.7-0.8-1.2-1.7-1.5-2.7c-0.3-1.1-0.5-2.2-0.5-3.3
					l6.4-1.2c0,0.9,0.2,1.9,0.5,2.7c0.3,0.4,0.7,0.8,1.3,0.9c0.5,0.1,1.1,0,1.5-0.3c0.3-0.2,0.5-0.5,0.6-0.9
					c0.2-0.4,0.2-0.8,0.3-1.2c0-0.5,0.1-1,0.1-1.4c0-0.6,0-1.1-0.1-1.7c-0.1-0.4-0.2-0.8-0.5-1.1s-0.6-0.6-1-0.8
					c-0.5-0.3-1-0.5-1.5-0.7c-1.4-0.5-2.7-1.2-3.9-2.1c-0.9-0.6-1.6-1.4-2.2-2.3c-0.5-0.8-0.9-1.6-1-2.6c-0.2-1-0.2-2-0.2-3
					c0-1.3,0.1-2.6,0.5-3.8c0.3-1.1,0.8-2.1,1.5-3s1.6-1.5,2.6-1.9c1.2-0.5,2.6-0.8,3.9-0.7c1.4,0,2.8,0.2,4,0.8
					c1,0.5,1.8,1.1,2.5,2c0.6,0.8,1,1.7,1.3,2.7c0.2,0.9,0.4,1.9,0.4,2.9l-6.3,1.4c0-0.4,0-0.9-0.1-1.3c0-0.4-0.1-0.8-0.3-1.1
					c-0.1-0.3-0.4-0.6-0.6-0.8c-0.3-0.2-0.7-0.3-1.1-0.3c-0.4,0-0.7,0.1-1,0.3c-0.2,0.2-0.4,0.5-0.6,0.8c-0.1,0.3-0.2,0.7-0.3,1
					c0,0.4-0.1,0.7-0.1,1.1s0,0.8,0.1,1.2c0.1,0.4,0.2,0.7,0.5,1c0.3,0.4,0.7,0.7,1.1,0.9c0.7,0.4,1.3,0.7,2,1
					c1.3,0.5,2.5,1.1,3.6,1.9c1.6,1.1,2.7,2.9,2.9,4.9C187.6,115.1,187.6,116.2,187.6,117.3"/>
				<path id="path58" d="M206.6,117.3c0,1.4-0.1,2.8-0.4,4.1c-0.2,1.1-0.7,2.2-1.4,3.2c-0.7,0.9-1.6,1.6-2.6,2
					c-1.3,0.5-2.7,0.8-4.1,0.7c-1.3,0-2.6-0.2-3.9-0.7c-1-0.4-1.9-1-2.6-1.8c-0.7-0.8-1.2-1.7-1.5-2.7c-0.3-1.1-0.5-2.2-0.5-3.3
					l6.4-1.2c0,0.9,0.2,1.9,0.5,2.7c0.3,0.4,0.7,0.8,1.3,0.9s1.1,0,1.5-0.3c0.3-0.2,0.5-0.5,0.6-0.9c0.2-0.4,0.2-0.8,0.3-1.2
					c0-0.5,0.1-1,0.1-1.4c0-0.6,0-1.1-0.1-1.7c-0.1-0.4-0.2-0.8-0.5-1.1s-0.6-0.6-1-0.8c-0.5-0.3-1-0.5-1.5-0.7
					c-1.4-0.5-2.7-1.2-3.9-2.1c-0.9-0.6-1.6-1.4-2.2-2.3c-0.5-0.8-0.9-1.6-1-2.6c-0.2-1-0.2-2-0.2-3c0-1.3,0.1-2.6,0.5-3.8
					c0.3-1.1,0.8-2.1,1.5-3s1.6-1.5,2.6-1.9c1.2-0.5,2.6-0.7,3.9-0.7c1.4,0,2.8,0.2,4,0.8c1,0.5,1.8,1.1,2.5,2
					c0.6,0.8,1,1.7,1.3,2.7c0.2,0.9,0.4,1.9,0.4,2.9l-6.3,1.4c0-0.4,0-0.9-0.1-1.3c0-0.4-0.1-0.8-0.3-1.1c-0.1-0.3-0.4-0.6-0.6-0.8
					c-0.3-0.2-0.7-0.3-1.1-0.3c-0.4,0-0.7,0.1-1,0.3c-0.2,0.2-0.4,0.5-0.6,0.8c-0.1,0.3-0.2,0.7-0.3,1c0,0.4-0.1,0.7-0.1,1.1
					s0,0.8,0.1,1.2c0.1,0.4,0.2,0.7,0.5,1c0.3,0.4,0.7,0.7,1.1,0.9c0.7,0.4,1.4,0.7,2.1,0.9c1.3,0.5,2.5,1.1,3.6,1.9
					c1.6,1.1,2.7,2.9,2.9,4.9C206.5,115,206.6,116.2,206.6,117.3"/>
				<polygon id="path62" points="209.2,127.1 209.2,94 224.2,94 224.2,100.2 215.6,100.2 215.6,107.2 223.1,107.2 223.1,113.4 
					215.6,113.4 215.6,120.9 224.2,120.9 224.2,127.1 				"/>
				<polygon id="path66" points="235.8,120.6 234.4,116.4 232.9,111.5 232.7,111.5 232.7,127.1 226.3,127.1 226.3,94 232.3,94 
					235.5,102.8 237.7,109.4 238,109.4 240.3,102.7 243.5,94 249.4,94 249.4,127.1 243,127.1 243,111.6 242.9,111.6 241.3,116.7 
					240,120.6 				"/>
				<path id="path70" d="M263.1,116.3c0-1.3-0.2-2.3-0.7-2.8c-0.5-0.6-1.3-0.9-2-0.8h-1.2v8.2h1.1c0.5,0,1-0.1,1.4-0.4
					c0.4-0.2,0.7-0.6,0.8-1c0.2-0.5,0.4-0.9,0.4-1.4C263.1,117.5,263.1,116.9,263.1,116.3L263.1,116.3z M262.8,103.4
					c0-1.3-0.2-2.2-0.7-2.6c-0.7-0.5-1.5-0.7-2.3-0.6h-0.7v6.6h0.8C261.9,106.7,262.8,105.6,262.8,103.4z M265.3,109.8
					c0.7,0.2,1.3,0.6,1.9,1.1c0.5,0.5,0.9,1,1.2,1.6c0.3,0.6,0.5,1.3,0.6,2s0.2,1.5,0.2,2.2c0,3.6-0.8,6.2-2.3,7.8
					c-1.5,1.7-3.8,2.5-6.9,2.5h-7.2V93.9h7.4c2.9,0,5.1,0.8,6.6,2.3c1.5,1.6,2.2,3.8,2.2,6.9c0,0.7-0.1,1.3-0.2,2
					c-0.1,0.6-0.3,1.2-0.6,1.8c-0.3,0.6-0.7,1.1-1.1,1.5c-0.5,0.4-1,0.8-1.6,1L265.3,109.8z"/>
				<polygon id="path74" points="272.6,127.1 272.6,94 279,94 279,120.9 287.6,120.9 287.6,127.1 				"/>
				<polygon id="path78" points="294.4,106 295.6,100.5 297,94 303.8,94 297.4,113.6 297.4,127.1 291,127.1 291,113.6 284.6,94 
					291.4,94 293,100.6 294.2,106 				"/>
				<path id="path82" d="M107.4,90.5c-1.5,0-2.8,0.9-3.4,2.2s-0.3,3,0.8,4c1,1.1,2.6,1.4,4,0.8s2.3-1.9,2.3-3.4c0-1-0.4-1.9-1-2.6
					C109.3,90.9,108.4,90.5,107.4,90.5"/>
				<path id="path86" d="M110.9,115.1l-1.5-11.8h-3.9l-1.5,11.8h-6.9l6.3-48.4h7.9l6.4,48.4H110.9z M95.5,82.7H89v-7.3
					c0-0.3,0-0.5-0.1-0.8s-0.2-0.6-0.3-0.9c-0.2-0.3-0.4-0.5-0.6-0.7c-0.3-0.2-0.7-0.3-1.1-0.3h-0.1l0,0c-0.4,0-0.8,0.1-1.1,0.3
					c-0.3,0.2-0.5,0.4-0.6,0.7c-0.1,0.3-0.2,0.6-0.3,0.9c-0.1,0.3-0.1,0.5-0.1,0.8v31.7c0,0.5,0.1,0.9,0.3,1.3
					c0.2,0.4,0.7,0.6,1.5,0.6c0.6,0,1.1-0.2,1.5-0.5s0.6-0.8,0.6-1.3v-9.1h-1.4v-5.8h7.9v14.6c0,2.8-0.7,4.9-2.2,6.4
					c-1.5,1.4-3.5,2.2-6.2,2.2c-3,0-5.2-0.7-6.6-2.2c-1.4-1.4-2.1-3.6-2.1-6.5V75.4c0-2.7,0.7-4.9,2.2-6.5s3.6-2.4,6.4-2.5
					c2.8,0,5,0.8,6.4,2.5c1.5,1.6,2.2,3.8,2.2,6.5L95.5,82.7z M134,90.9c0-2.8,2.2-5,5-5l-1.2-6.2c-2.5,1.1-5.4-0.2-6.5-2.7
					c-1-2.6,0.2-5.5,2.7-6.6l-3.5-5.3c-1.3,1.3-3.1,1.8-4.8,1.3c-1.7-0.5-3.1-1.8-3.5-3.5c-0.5-1.7,0-3.6,1.3-4.8l-5.2-3.5
					c-1,2.6-4,3.8-6.5,2.7c-2.5-1.1-3.7-4-2.7-6.6l-6.1-1.2c0,2.8-2.2,5-5,5c-2.7,0-5-2.2-5-5l-6.1,1.2c0.7,1.7,0.4,3.5-0.6,5
					c-1.1,1.4-2.8,2.2-4.6,1.9s-3.3-1.4-3.9-3l-5.2,3.5c1.3,1.3,1.9,3.1,1.4,4.9c-0.4,1.8-1.8,3.2-3.6,3.6c-1.8,0.5-3.6-0.1-4.9-1.4
					L62,70.4c2.5,1.1,3.7,4,2.7,6.6s-4,3.8-6.5,2.7L57,85.9c2.7,0,5,2.2,5,5s-2.2,5-5,5l1.2,6.2c2.5-1.1,5.4,0.2,6.5,2.7
					c1,2.6-0.2,5.5-2.7,6.6l3.5,5.2c1.2-1.3,3.1-1.8,4.8-1.4c1.7,0.5,3.1,1.8,3.5,3.6s-0.1,3.6-1.4,4.9l5.2,3.5
					c1.1-2.5,3.9-3.7,6.4-2.6c2.5,1,3.7,3.9,2.7,6.5l6.1,1.2c0.1-2.7,2.3-4.9,5-4.9s4.9,2.1,5,4.9l6.1-1.2c-1-2.6,0.2-5.5,2.7-6.6
					s5.4,0.2,6.5,2.7l5.2-3.5c-1.3-1.3-1.8-3.1-1.4-4.9c0.5-1.8,1.8-3.1,3.5-3.6s3.6,0.1,4.8,1.4l3.5-5.3c-1.6-0.7-2.8-2.2-3-4
					s0.5-3.5,1.9-4.6s3.3-1.3,4.9-0.7l1.2-6.2C136.2,95.9,134,93.6,134,90.9L134,90.9z"/>
			</g>
		</g>
	</g>
</g>
</svg>
