<?xml version="1.0" encoding="utf-8"?>
<!-- Generator: Adobe Illustrator 21.1.0, SVG Export Plug-In . SVG Version: 6.00 Build 0)  -->
<svg version="1.1" id="Layer_1" xmlns="http://www.w3.org/2000/svg" xmlns:xlink="http://www.w3.org/1999/xlink" x="0px" y="0px"
	 viewBox="0 0 360 180" style="enable-background:new 0 0 360 180;" xml:space="preserve">
<style type="text/css">
	.st0{fill:none;}
</style>
<title>tough-mudder</title>
<g id="_x31_---Case-Studies" transform="translate(-620.000000, -500.000000)">
	<g id="tough-mudder" transform="translate(540.000000, 436.000000)">
		<rect id="Rectangle-4" x="80" y="41.5" class="st0" width="360" height="225"/>
		<g id="Shape" transform="translate(80.000000, 64.000000)">
			<path d="M264.3,131.7c-0.1-0.3-0.2-0.7-0.3-1c-1.5-2.6-1-5.2,0.3-7.8c1-2,1-2.1,3-2.3c-0.1-0.1-0.3-0.2-0.5-0.3
				c-2.4-0.2-2.6-0.2-2.1-2.7c0.7-3.4,0.1-6.6-0.6-9.9c-0.3-1.5-1.8-2.7-1.5-4.4c0.4-1.9-0.8-2.4-2.2-2.6c-0.4,0-1,0-1.1,0.7
				s0.6,0.6,0.8,0.5c2-0.1,2,0.9,1.5,2.3c-0.4,1.2-0.7,2.4-1,3.6c-0.2,0.7-0.7,0.9-1.3,1c-0.2,0-0.4,0.1-0.5,0.3s-0.1,0.3-0.1,0.5
				c0.1,0.4,0.4,0.3,0.7,0.3c1.2,0.1,2.3,1.6,2.2,2.9c-0.1,2-0.8,3-3,2.7c-0.8-0.1-1.7,0.1-3,0.3c1.4,0.7,2.5,0.9,3.7,0.7
				c0.4,0,0.6-0.9,1.1-0.4c0.3,0.3-0.1,0.7-0.3,1.1c-0.3,0.6-0.7,0.7-1.3,0.4c-0.4-0.2-3.7,0.2-4,0.6c-0.1,0.1-0.1,0.3-0.1,0.4
				c1.5-0.5,3.1-0.3,4.6,0c0.5,0.1,0.4,1,0.5,1.6s-0.6,0.4-1,0.4c-1.6,0.1-3.2,0.2-4.8,0.2c-0.5,0-1.2,0-1.4-0.6
				c-0.1-0.4,0.1-0.8,0.4-1.1c1.9-1.7,2.3-3.7,0.8-6c0.2,0,0.5-0.1,0.7-0.1c0.5,0.2,1,0.4,1.1-0.2c0.1-0.5-0.3-0.7-0.8-0.7
				c-0.3,0-0.6-0.2-0.5-0.6c0-0.1,0.3-0.4,0.3-0.4c1.8,0.4,0.9-0.9,1-1.6c-0.8,0.6-1.8,0.8-2.6,2c-0.3-2.4-0.9-4.4-0.5-6.2
				c0.3-1.2,0.5-2-0.3-3c-0.3-0.5,0-1.1,0.6-0.7c1.4,0.7,2.7,0.1,4.1-0.4c-1.2-0.1-2.4-0.4-3.7-0.3c-1.2,0.1-1.4-0.5-1.5-1.5
				c-0.1-2.1-0.1-4.2-0.4-6.4c-0.2-1.1,0.2-2.3,1-3.1c0.4-0.4,0.6-1.5,1.5-0.4c0.2,0.1,0.4,0.2,0.6,0.1s0.3-0.3,0.4-0.5
				c0.1-0.6,0-0.8-0.8-0.7c-0.8,0.1-1.8-2.2-1.5-3.6c0.1-0.8,0.4-1.5,1-2c0.7-0.7,1.1-1.6,0.1-2.5c-1.4-1.2-2.2-3.6-4.4-3.2
				c-2.4,0.4-3.7-1.6-5.6-2c-0.9-0.2-1-1.4-0.9-2.3c0.3-3.1,0.6-6.2,1.8-9.1c1-2.3,2.3-4.6,4.7-6.1c0.7-0.4,1.5-0.9,1.6-1.8
				c0.1-0.8,0.9-0.7,1.4-0.9c1.6-0.5,3.2-0.7,4.7-1.6c1.1-0.7,1.6-1.5,1-2.8c-0.9-1.9-0.2-3.9,0.1-5.7c0.1-0.7,0.6-1.5,1.4-1.5
				c1-0.1,0.3,0.9,0.5,1.4c0.2,0.3,0.4,0.7,0.8,0.6c0.5-0.1,0.5-0.4,0.2-0.7c-0.1-0.2-0.1-0.3-0.1-0.5s0.1-0.3,0.3-0.4
				c0.4-0.2,0.8,0,1.1,0.3c1.1,1,2.2,1.7,3.8,1.2c-1.6-0.4-2.2-2.4-4.2-2.2c-0.3,0-0.7-0.1-0.6-0.5c0-0.2,0.4-0.4,0.6-0.5
				c2.1-0.9,5.6,0,7,1.8c0.3,0.4,0.6,0.7,0.3,1.2c-0.8,1.2-0.2,2.1,0.3,3.2c0.6,1.3,0.5,2.7,0,4c-0.6,1.4,0.1,2.1,1.3,2.4
				c3.6,1,6.2,3.4,8.8,5.7c0.5,0.4,0.8,1.1,0.8,1.7c0.1,1.2,0.6,2.5,0.7,3.6c0.1,3,1.3,5.8,0.7,8.8c-0.3,1.7-0.9,3-2.8,3.1
				c-1.2,0.1-2.7,0.4-3.2-0.9c-0.5-1.4-0.7-2.9,0.6-4.1c0.6-0.5,0.8-1,0.4-1.7c-0.5-0.8-1-1.7-2-1.9c-0.6-0.1-0.7,0.5-0.6,1
				c0.5,3.4,0.2,6.9,1.1,10.2c0.7,2.6-0.6,4.8-1,7.2c-0.4,1.7-0.8,3.3-0.1,5c0.8,2.1,0,4.3,0.4,6.4c0.1,0.4,0,0.9,0.3,1.3
				c0.8,1,0.6,1.9-0.5,2.5c-0.7,0.5-0.8,1-0.6,1.9c0.7,2.7,0.1,5.4,0,8.1c0,0.3-0.1,0.6-0.1,0.9c0,0.9,1.4,2.1,0.1,2.5
				c-0.9,0.3-1.9,0.4-2.8,0.3c-0.7-0.2-1.5-0.2-2.3,0.1c0,0.6,0.5,1,0.9,0.8c1.3-0.7,2.7,0.1,4-0.4c0.8-0.3,1.6,0,1.7,1
				c0,0.9-0.6,1.4-1.4,1.5c-1,0.1-2,0.1-3,0.2c-0.4,0-0.7,0.1-0.8,0.6c0.8,0.3,1.7,0.2,2.5,0c0.6-0.2,1.2,0.1,1.5,0.6
				c0.4,0.6-0.3,0.8-0.6,1.1c-0.7,0.8-0.8,1.7-0.8,2.7c0,2.3,0.1,4.6,0.1,7c-0.1,0.1-0.3,0.3-0.4,0.4h-7.5
				C264.6,132,264.5,131.9,264.3,131.7z M266.5,87.9c-0.8-0.4-1.6-0.2-2.5-0.2c0.2,0.3,0.6,0.6,0.5,0.7c-0.1,0.2-0.3,0.3-0.5,0.3
				s-0.4-0.1-0.5-0.2c-0.7-0.6-1.3-0.7-2-0.1c0.3,0.1,0.5,0.2,0.8,0.4C263.3,89.8,266,89.3,266.5,87.9l0.1-0.1
				C266.6,87.9,266.6,87.9,266.5,87.9L266.5,87.9z M251.8,70.3c-1.1,1.9-1.1,1.9,1,2.1C252.4,71.7,252.1,71.1,251.8,70.3z
				 M262.4,98.5c-1.2-0.4-2.4-0.5-3.5,0.5C260,98.5,261.3,99.4,262.4,98.5z M254.9,60.1c-1.3-1.1-1.8-0.2-2.4,0.6
				C253.4,61.2,254.1,60.7,254.9,60.1z M259.3,102.7c-0.9,0-1.6,0.2-2.1,0.7c-0.1,0.1-0.1,0.7,0.2,0.7
				C258.1,103.9,258.9,103.7,259.3,102.7L259.3,102.7z M260.1,47.3c0.7,0.9-0.4,1.8,0.4,2.2c0.9,0.4,0.6-1.3,1.5-1.3
				C261.8,47.8,261.2,47.7,260.1,47.3L260.1,47.3z M258.6,97.5c2.1,0.1,2.1,0.1,3.1-2C260.5,96.3,259.9,98,258.6,97.5z M265.7,57.3
				c1.1,0.1,2.2,0.4,3.1-0.4C267.8,57,266.8,57.2,265.7,57.3z M253.1,66.5c-0.6-0.4-1.2-0.2-1.7-0.3c-0.8-0.2-0.7,0.7-0.3,1
				C251.8,67.7,252.4,67.1,253.1,66.5z M258.9,55.8c0.6,0.5,0.3,2.2,1.9,1.2C259.9,57,259.9,55.7,258.9,55.8z M254.9,106.3
				c1.1-0.3,2-0.5,2.9-0.7C256.7,105.2,256.6,105.3,254.9,106.3z M258.9,89.1c0.8,0.2,1.4,0.4,2,0.5c-0.1-0.3-0.2-0.5-0.3-0.8
				C260.1,88.1,259.6,88.5,258.9,89.1z M270.9,100.6c-0.6-0.9-1.4-0.9-2.2-0.6c-0.1,0.1-0.2,0.2-0.2,0.4c0,0.1,0.3,0.2,0.4,0.3
				C269.6,99.1,270.1,100.9,270.9,100.6z"/>
			<path d="M140.8,104.7c0.6,0.9,1.3,0,1.9,0c3.8,0.1,7.5,0.1,11.3,0.2c5.4,0.2,8.3,3.5,9.9,8.1c0.4,1.2,0.8,2.5,1.1,3.8
				c0-3.4,0.1-6.8,0-10.2c0-1.4,0.4-1.9,1.8-1.8c4.1,0.1,8.3,0.1,12.4,0.1c4.6,0,7.7,2.2,9.7,6.1c0.1,0.3,0.3,0.7,0.5,1
				c0.3,0.3,0.6,0.8,0.9,0.8c0.5,0,0.4-0.6,0.5-1c0.5-1,0.6-1.8,0.1-2.9c-0.6-1.1,0.2-2.2,0.3-3.3c0-0.7,0.8-0.6,1.3-0.6
				c4.1,0.3,8.3-0.6,12.3,0c0.5,0.1,0.9-0.1,0.8,0.7c-0.2,1.3-0.2,2.6,0,3.9c0.1,0.6-0.1,0.7-0.6,0.7c-1.8,0-3.6,0-5.3,0
				c-1.3,0-1.8,0.2-1.7,1.7c0.4,2.9,0.3,2.9,3.2,3s5.7,0.2,8.6,0.2c1.4,0,1.9,0.4,1.9,1.8c0.1,3.6,0.2,3.6-3.5,3.6
				c-2.9,0-5.7,0-8.6,0c-1.1,0-1.7,0.3-1.5,1.5c0.1,1.2-0.1,2.4,0.1,3.6c0.2,1.5-0.5,1.5-1.3,0.9c-1.4-0.9-1.6-0.2-1.6,0.9
				c0,0.4-0.3,0.9,0.4,1.2c0.7,0.2,0.9-0.2,1.1-0.6c0.3-0.8,0.7-0.8,1.3-0.2c1.2,1.2,2.1,1,3.1-0.5c0.1,0.1,0.2,0.2,0.3,0.3
				c0.1,0.4-0.4,0.9,0,1.4c0.3-0.3,0.5-0.7,0.5-1.1c0.2-1.6,1-2.3,2.5-2.1c2.3,0.4,4.5,0.3,6.8,0.1c1.7-0.1,2.4,0.2,2.2,1.9
				c0,0.7,0,1.3,0,2c2.1-1.1,2.5-2.5,1.3-3.5c0.6-0.9,1.6-0.6,2.4-0.8c0.3-0.1,0.6,0,0.6,0.2c-0.2,1.4,1.6,2.2,0.8,3.7
				c-0.3,0.5,0.3,0.6,0.5,0.9c0.3,0.5,0.5,1.1,0.7,1.7h-29.1c-0.6-0.9,0.3-1.6,0.5-2.4c0.4-1.5-0.3-2.9-0.2-4.4
				c0.1-1.8,0.8-3.6,0-5.9c-0.4,3.1-1.1,5.5-2.4,7.8c-1.8,3-4.2,4.9-8,4.6c-0.8-0.1-1.7-0.1-2.4,0.4H166c-0.3-1.3-1.3-0.4-2.1-0.7
				c0.4-0.4,1.4-0.8,0.5-1.4c-0.9-0.6-1.8-1.1-2.8-1.4c-0.4-0.2-0.7,0.4-0.9,0.7c-0.4,0.5,0.1,0.7,0.4,1c0.5,0.5,1.4,0.5,1.9,1.1
				s-0.3,0.4-0.4,0.7h-0.4c-0.8-0.7-1.7-0.6-2.5,0H159c-0.5-0.8-1.1-1-1.9-0.4H157c-0.1-0.1-0.2-0.1-0.3,0c-1,0.2-2-0.3-3,0.4h-13.3
				c-0.6-0.5-1.3-0.7-2.2-0.5c0.5-1.3,0.5-2.3-1.2-2.6c-0.1,0-0.1-0.2-0.3-0.2c-0.6-0.5-1-0.2-1.3,0.3s-0.8,1.1,0.1,1.4
				c0.6,0.2,0.6,0.6,0.6,1.1c-0.3,0-0.6,0-0.9,0c-0.5-1.1-1.5-1-2.4-0.9c-0.9,0-0.6,0.9-0.8,1.4h-0.4V132c0.3-1-1.5-2-0.1-3.1
				c-0.1-0.1-0.2-0.3-0.3-0.4c-0.3-0.2-0.5,0-0.5,0.2c-0.3,0.8-1.5,1.6-0.1,2.5c0.3,0.2,0.4,0.6,0.4,0.9h-10.8c0-0.4,0-0.9-0.5-1
				c-1.2-0.4-1.9-1.4-2.8-2.1c-1.1-0.8-1.6-5.5-0.8-6.5c0.2-0.2,0.5-0.4,0.8-0.3c0.5,0.1,0.9,0,0.6-0.6c-0.1-0.3-0.2-0.6-0.9-0.4
				c-0.9,0.2-1.8,0.1-1.8,1.5c-0.2-0.1-0.4-0.2-0.6-0.2v-13.4c0.1-1.2,0.1-2.4,0.3-3.6c1.1,0.4,2.2,0.7,3.3,0.2c0.1,0,0.3,0,0.4,0
				c1,0.3,2,0.6,3,0.9c-0.3,4.8,0,9.6-0.1,14.3c0,3.7,0.9,5.2,4.6,5.3s5.2-1.4,5.1-4.9c-0.1-3,0-6.1,0-9.1c0-1.6-0.3-3.4,0.4-4.7
				c0.6-1.2,0.5-1.6-0.6-2.2c1.2,0.1,2.3,0.2,3.3-0.6c0.8,0,1.6,0,2.4,0c0.3,0.6,0.9,0.7,1.4,0.6c0.1,1.6,0.2,3.2,0.3,4.9
				c0,3.7-0.1,7.5-0.1,11.2c0,1.3-0.2,2.6-0.6,3.8c-0.3,0.7-0.5,1.2,0.5,1.5c1.2,0.3,0.8-0.7,1-1.2c0.1-0.3,0.1-0.6,0.1-0.9
				c-0.1-4.8-0.1-9.6-0.2-14.4c0.3-1.6,0.1-3.3,0.1-5c0.1-0.1,0.3-0.3,0.4-0.5C139.9,104.7,140.3,104.6,140.8,104.7L140.8,104.7z
				 M180.5,127.8c-1.1-1.1-0.9-2.3,0.4-2.7c0.3-0.1,0.7-0.2,0.9-0.5c1.9-2.5,2.2-8.1,0.5-10.7s-6.1-3.9-9.3-3
				c-0.4,0.1-0.7,0.3-0.6,0.7c0.3,1.6-0.6,3.1-0.7,4.6c-0.1,2.3-0.3,4.6-0.4,6.9c0,0.4,0.2,1.2-0.5,1.1c-1.1-0.1-1.9,0.8-3.1,0.4
				c0.7,1,1.4,0.5,2.1,0.5c0.7,0,1.4-0.4,2.1,0.5c-1.6,0.2-3,0.5-5,0.7c1.2,0.4,1.9,0.8,2.6,0.7c2.2-0.1,4.4-0.4,6.6-0.7
				c0.6-0.1,1.1-0.1,1.4,0.4C178.1,128.1,179.1,128,180.5,127.8z M155.4,127.8c-1.7-0.3-1.4-0.3-1.1-1.8c0.2-1.2,1.2-1,1.7-1.6
				c1.9-2.7,2.2-7.8,0.4-10.5c-1.7-2.5-5.9-3.9-9.3-3c-0.2,0-0.4,0.1-0.5,0.3s-0.2,0.4-0.1,0.6c0,2.5,0.2,5-0.8,7.4
				c-0.5,1.2-0.1,2.7-0.2,4.1c0,0.4,0.1,1.2-0.3,1.1c-1.2-0.4-2.3,1.2-3.5,0.1c-0.3-0.2-0.6-0.3-0.8,0s0.1,0.5,0.4,0.7
				c0.7,0.4,1.4,0.2,2.1,0.1c0.9-0.1,1.9-0.5,3,0.6c-1.2,0-2,0-2.8,0c-0.2,0-0.4,0-0.5,0.1s-0.2,0.3-0.2,0.5c0,0.4,0.4,0.7,0.5,0.6
				c1.5-0.7,3,0.3,4.6-0.4c0.9-0.4,2.7-1.1,3.7,0.3C152.7,128.4,154.1,127.9,155.4,127.8L155.4,127.8z M165,122.1
				c-1.1,1.2-1.2,2.5-1.7,3.6c-0.3,0.7,0.5,0.8,0.9,1c0.5,0.2,0.8-0.2,0.8-0.6C165.2,124.8,165.2,123.4,165,122.1z M134.5,113.8
				c-0.5-0.9,0.6-2-0.7-2.9C133.9,112,133.3,113,134.5,113.8L134.5,113.8z"/>
			<path d="M231.7,132.2c-0.7-1.6-0.4-3.4-0.7-5.1c-0.6-3.5-1.9-4.7-5.3-4.6c-0.5,0-1.1,0-1.6-0.1c-1.1-0.1-2.4-0.5-3,1
				c-0.1,0.2-0.4,0.4-0.6,0.5c-0.3,0.1-0.6,0-0.8-0.2c-1.3-1.1-2.5-0.2-3.8-0.1c-0.8,0.1,0,0.5,0,0.7c0.1,0.6-0.3,0.9-0.8,1
				c-0.3,0.1-0.5,0-0.8-0.1c-0.2-0.1-0.4-0.4-0.4-0.6c0-0.4-0.1-0.8,0-1.2c0-5.6,0.1-11.3,0-17c0-1.6,0.5-1.9,2-1.8
				c4.7,0.1,9.3,0,14,0.1c3.9,0,6.9,2,8,5.1s0.3,7.5-3.1,9.4c-0.1,0.1-0.3,0.2-0.7,0.4c3.2,1.7,3.8,4.6,3.9,7.6
				c0.1,1.6,0.4,3.3,0.6,4.9C236.3,132.2,234,132.2,231.7,132.2z M226.5,116.9c0.9-0.1,2.3,0.2,2.8-0.2c1-1,2.1-2.2,1.7-3.9
				c-0.3-1.4-1.6-2.4-3-2.4c-1.6-0.1-3.2-0.2-4.8-0.3c-1.9-0.1-2.1,0.2-1.6,2.1c0.2,0.6,0.9,1.1,0,1.9c-0.8,0.6-0.5,1.6-0.1,2.3
				s1.3,0.8,1.9,0.6C224.4,116.7,225.4,116.9,226.5,116.9L226.5,116.9z"/>
			<path d="M107.8,107.3c-0.1-0.2-0.2-0.4-0.3-0.6c0.1-1.2,0.4-2.2,2-2.1c1.3,0.2,3.1-0.6,3.9,0.3c0.7,0.7,0.2,2.5,0.3,3.7
				c0,0.1,0,0.2,0,0.4c0,7.5,0,14.9-0.1,22.4c-0.4,0.1-0.4,0.4-0.4,0.7h-6.5c0.5-2.8,0.2-5.7,0.3-8.5c0-1.4,0.2-2.2,1.7-2.2
				c-1.5-3.4,2.5-4.4,2.9-7c-1,0.2-1.3,1.3-2.4,1.7c0.2-1,0.3-2,0.6-2.9c0.7-1.9-0.6-2.8-1.7-3.8c-0.4-0.3-0.5-0.8-0.4-1.2
				c0.4,0,0.3-0.4,0.3-0.6C108.2,107.3,108.1,107.3,107.8,107.3z"/>
			<path d="M220.3,132.2c-0.3-0.6,0.3-0.7,0.5-0.8c0.6-0.2,0.5,0.6,0.9,0.8H220.3z"/>
			<path d="M142.1,77.9c0.2-3.2,0.5-6.5,0.3-9.8c-0.1-0.9,0.2-1,1.1-1.1c2.1-0.4,4.2,0.7,6.3-0.2c-2-0.4-3.9-0.8-5.9-0.6
				c-0.3,0-0.5,0.1-0.7,0c-1.4-0.9-0.6-2.3-0.8-3.5c-0.1-0.7-0.4-1.7,0.9-1.7c2.7,0,5.4,0,8.1,0c1.2,0,1.1,0.7,1.1,1.5
				c0,3.6,0,7.3,0,11s0,7.5,0,11.3c0,1.2,0.4,2.6-1.7,3c1.3,0,1.8,0.4,1.8,1.5c0,1.7,1.1,3.1,1.6,4.7c0.1,0.4,0.4,0.6,0.8,0.5
				c3.2-1.4,6.5-1,10.3-0.5c-1.5-1.5-3-1-4.2-1.1c-2.4-0.2-2.5-0.1-1.9-2.5c0.4-1.6,0.2-3.3,0.3-5c0.4-6.5-0.1-12.9,0.4-19.3
				c0.1-1.3-0.1-2.6-0.2-3.9c-0.1-0.9,0.3-1.4,1.2-1.2c0.3,0,0.6,0,0.9,0c1.1,0.1,2.4-0.4,3.1,0.3c0.9,0.8-0.4,1.8-0.5,2.7
				c0,0.2,0.1,0.3,0.1,0.5c0.9-0.1,0.7-0.9,0.8-1.4c0.2-0.6,0.3-1.1,0.5-1.8c0.8,0.8-0.5,1.8,0.5,2.5c0.4-0.5,0.4-1.1,0.5-1.6
				c0-0.5-0.1-1,0.6-1.1c0.8-0.1,0.5,0.8,0.9,1c0.5-0.2,0.3-1.2,1-1c0.8,0.2,0.6,0.9,0.4,1.4c-0.4,1.2,0.7,2.6-0.7,3.6
				c0.5,0.5,0.8,1.2,0.8,1.9c-0.1,7.5,0,15-0.1,22.5c0,3.3-1.2,6.4-3.4,8.8c-2,2.2-4.3,3.4-7.6,2.9c-1.4-0.2-3,0.1-4.5-0.1
				c-2.2-0.4-4.9,0.5-6-2.5c-1.1,1-1.5-0.4-2.2-0.8c-1.1-0.7-1.3-1.7-1-3.1c0.1-0.7-0.4-1.6-0.4-2.5c0.1-0.2,0.1-0.5,0.2-0.8
				c0.4-0.5,0.3-1.2,0.9-1.8c0.6-0.5,0.6-0.9-0.5-0.8c-2,0.1-2.6-0.8-2.7-2.9c-0.1-2.3,1.3-4.4,0.8-6.7c-0.1-0.8,0.2-1.7-0.8-2.2
				C142.2,78.1,142.2,78,142.1,77.9z M166.1,72.6c0,0,0-0.1-0.1-0.1h-0.1C165.9,72.5,166,72.5,166.1,72.6c0.5,1.2,1.6,1.2,2.8,1.4
				C168,73,167,73,166.1,72.6z M154.1,98c-1.6-0.1-2.7,0.8-3.8,1.7c-0.3,0.2-0.6,0.5-0.3,0.9s0.5,0.1,0.8-0.1
				C151.9,99.5,153,98.7,154.1,98L154.1,98z M163,78.3c0.1,0,0.3,0,0.4,0.1c0.2-0.9,0.4-1.7,0.5-2.6c0-0.3,0.2-0.8-0.3-0.9
				c-0.6-0.1-0.6,0.5-0.6,0.8C163,76.6,163,77.4,163,78.3z M148.1,97.2c-0.1-0.5-0.2-1-0.3-1.4s-0.3-0.9-0.8-0.6
				c-0.4,0.2-0.3,0.6,0.1,0.8c0.5,0.3,0.4,0.8,0.4,1.2c-0.1,0.4-0.8,1.1,0.1,1.2C148.3,98.6,148,97.8,148.1,97.2z M166,70
				c0.1-0.3,0.3-0.8-0.4-0.8c-0.8,0-0.6,0.8-0.9,1.3c-0.1,0.3-0.2,0.8,0.3,0.9C166,71.4,165.9,70.7,166,70L166,70z M166.2,73.8
				c-1.1,1.2-1.2,2.2-1,3.5C166.3,76.3,166.3,75.3,166.2,73.8L166.2,73.8z M165.1,81c-0.3-0.4,0.6-1.1-0.2-1.1c-0.9,0-0.2,1-0.5,1.6
				c-0.2,0.4,0,0.8,0.5,0.6C165.7,82,165.1,81.4,165.1,81L165.1,81z M167,96.4c0.6-1.2,1.1-2,1.3-3.2C167.2,94,166.9,94.8,167,96.4
				L167,96.4z"/>
			<path d="M89.2,70.2c0.2-3.6-0.1-3.9-3.6-3.2c-0.5,0.1-0.9,0.1-1.4,0.2c-1.5,0.2-2.2-0.4-2.1-2c0.1-1.1,0-2.2,0-3.4
				c0-0.7-0.2-1.5,0.7-1.9c0.3-0.1,0.5-0.4,0.1-0.6s-0.9-0.4-0.6-0.9s0.9-0.2,1.3-0.3c1.6-0.2,3.2,0.3,4.8-0.4
				c0.9-0.4,1.4,0.5,1.8,0.8c2,1.4,3.9,0.3,5.8,0.2c0.3,0,0.5-0.4,0.8-0.2c2.4,1.2,4.5,0.4,6.7-0.6s3.7-0.1,3.6,2.3
				c0,0.9,0.2,1.9-0.4,2.7c-0.4,0.6,0.5,1.2,0.5,2c0,1.3-0.3,2-1.8,1.9c-1.1-0.1-2.3,0.1-3.4,0c-1,0-1.5,0.3-1.5,1.4
				c0,0.7-0.1,1.4-0.3,2.1c-0.2,0.9-1.3,1.2-1.6,0.9c-0.7-0.8-1.3-0.2-1.9-0.2c-0.8,0.1-1.5,0.6-2.4,0.2c-0.6-0.3-1.2,0.5-2,0.5
				c0.9,0.9,2,0.5,3,0.5c0.6,0,1.2-0.2,1.8-0.2c3-0.3,4,1,2.9,3.7c-0.4,1.1-0.9,2.2,0.2,3.3c0.3,0.3,0.4,1.1,0.3,1.3
				c-1.8,2.5-0.4,5.4-1.2,8c-0.5,1.6,0.7,2.9,0.3,4.5c-0.2,0.7-0.3,1.5-1,1.8c-1.2,0.4-0.7,1.8-1.7,2.3c-0.1,0,0,0.2-0.1,0.3
				c0.9,0.1,1,0.7,0.5,1.2c-0.4,0.4-1.3,0.8-1.8,0.6c-1.5-0.6-1.6,0.5-1.8,1.3c-0.4,1.2-0.4,1.3-1.7,0.7c-0.1-0.1-0.1-0.1-0.3,0
				c-1.5,0.6-1.5,0.5-2-0.9c-0.8-2.4-0.4-4.9-0.3-7.2c0-1.8-0.8-3.7,0.5-5.5c0.1-0.2-0.8-1.6-0.5-2.5c0.5-2-0.5-4.3,0.9-6.2
				c0.2-0.2,0-0.5-0.1-0.8c-0.5-1.3-1.8-2.7,0.1-4c0.1-0.1,0.3-0.1,0-0.3c-1.5-0.6-0.6-2.1-1.1-3.1C89.1,70.5,89.1,70.4,89.2,70.2z
				 M82.8,65.1c1,1.2,6.5,1.4,8.2,0.3C88.3,65.1,85.5,65,82.8,65.1L82.8,65.1z"/>
			<path d="M95.1,132c-0.1-0.3,0-0.7-0.4-0.9c0.1-1.6-0.5-3.1-0.9-4.7c-1-3.9-2-7.7-3-11.5c-0.1-0.4,0-1-0.6-0.9
				c-0.8,0-0.5,0.7-0.5,1.1c0,3.9,0,7.7,0,11.6c0,0.4,0,0.8,0,1.2c0,0.5-0.7,0.9-0.8,0.8c-1-1.2-2.8-0.1-3.7-1.2
				c-0.5-0.7-1.3-1.2-2.2-1.2c0.3-3.2-0.4-6.3-0.2-9.4c0-4.1,0.1-8.2,0.1-12.2l0,0l5.8-0.1c0.6,0,1.3,0.1,2,0.1
				c3.4,0.1,2.7-0.6,3.7,2.9c1.3,4.8,2.5,9.6,4.1,14.5c1.2-4.4,2.4-8.8,3.7-13.5c0.8,1,1.5,1.8,1.7,2.8c0.3,1.4,0.8,1.1,1.5,0.4
				c0.2-0.3,0.5-0.5,0.7-0.8c0.3-0.4,0.7-0.7,1.2-0.5c0.5,0.1,0.9,0.7,0.8,1.2c-0.1,1.4-0.4,2.7-0.6,4c0,0.3-0.3,0.8-0.7,0.4
				c-1.2-1.1-1.2,0.1-1.4,0.7c-0.9,2.8-1.7,5.6-2.5,8.4c-0.3,0.9-1.2,1.9,0.2,2.8c0.3,0.2,0,0.7-0.2,0.7c-1.4,0.2-1.4,1.3-1.6,2.2
				c-0.2,0.8-0.6,1-1.4,1C98.3,131.9,96.7,132,95.1,132z"/>
			<path d="M82.9,104.6c-1.5-0.1-1.8-1.5-2.9-2.3C82.4,101.7,82.3,103.5,82.9,104.6L82.9,104.6z"/>
			<path d="M231.1,83.5c1.1-1,2.6-0.7,3.4-2.4c0.1,1.5,0.4,2.5-0.2,3.6c-0.3,0.6,0.5,1.3,0.3,2.1c-0.8,2.7,0.1,5.5,0.1,8.2
				c0,1.7-0.4,3-2,3.5c-0.6,0.2-0.7,0.7-1.1,1c-0.3-0.5-0.5-1-1-1.2c0,1.3,0.1,2.6,1.8,2.9c-0.3-1.5,0.7-2.1,2-2.5
				c0.4,0.4,0.3,0.7,0.3,1.1c0.1,3,0,3-2.9,2c-0.4-0.1-0.5,0.1-0.7,0.2c-0.3,0.4-0.8,0.3-1.1,0.3c-4.6,0.3-4.6,0.3-4.6-4.2
				c0-2.5,0.1-5,0-7.6c0-1,0.9-0.7,1.4-1.4c-0.8-0.1-1.5-0.2-1.5-1.2c0-0.7-0.6-0.9-1.3-0.8c-1.9,0.1-3.8,0-5.7,0
				c-2.4,0-2.7,0.5-2.5,2.9c0.1,3.8,0,7.6,0,11.5c-1.8-1.2-3.7-0.8-5.4-0.4c-1.4,0.4-2.3-1.1-3.6-0.4c-0.3,0.1-0.4-0.8-0.4-1.2
				c0-3,0.1-6,0-8.9c0-0.9,0.4-1.4,1.3-1.2c2,0.5,3.8-0.4,5.7-0.4c-1.3-0.7-2.6-0.6-3.9-0.3c-2.4,0.5-3.2-0.1-3-2.4
				c0.1-1.2-0.3-2.5,0.5-3.7c0.5-0.8-0.6-1.7-0.6-2.8c0.1-2.5,1-4.9,0.8-7.5c0-0.2,0.2-0.5,0-0.8c-1.1-1.8-1-2.8,0.5-4.1
				c0.8-0.7,1.8-1.4,0.9-2.9c-0.4-0.7,0.6-1.2,1.2-1c1.6,0.3,2.2-0.5,2.5-1.9c0.2-0.9,0.6-1.4,1.3-0.2c0.1,0.1,0,0.4,0.3,0.3
				c0.1,0,0.1-0.3,0.1-0.5c0.2-0.5,0.6-0.5,1-0.4c0.2,0,0.4,0.1,0.6,0.3c0.1,0.2,0.2,0.4,0.1,0.6c-0.3,2.9-0.2,5.7-0.3,8.6
				c0,2.6-0.2,5.3,0.4,7.9c0.2,0.7,0.7,0.7,1.3,0.7c2.2,0,4.4-0.1,6.6,0c1.2,0,1.5-0.5,1.5-1.6c0.2-4.4,0-8.9,0-13.3
				c0-3,0-3,2.9-2.9c1.7,0,3.5,0.1,5.2,0c0.9,0,1.4,0.2,1.4,1.2c0,5.9,0,11.8,0,17.7c0,1.2-0.7,1.5-1.6,1.8
				C232.4,82.3,231.3,82.1,231.1,83.5z M231.6,89.9c0-0.9,0-1.8,0-2.7c0.1-1.5-1.1-2.5-1.3-3.7c-0.3-2.1-1.6-4-1.7-6.2
				C228.7,81.7,230.6,85.6,231.6,89.9z M230.2,70.1c0.3-1.7-0.5-3.2-1-5.1C228.5,67.1,230.2,68.4,230.2,70.1z M231.3,81.9
				c0.4-1.8-0.3-3.1-0.7-4.6C230.7,78.8,230,80.3,231.3,81.9L231.3,81.9z M230.1,92c-0.2,1.4,0.1,2.6,0.9,4.1
				C231.2,94.4,230.7,93.2,230.1,92L230.1,92z M228.1,70.2c0-1.2,0.1-2.1-0.3-3.4C227.4,68.2,227.4,69.1,228.1,70.2L228.1,70.2z"/>
			<path d="M114.4,64.7c0.4-0.2,0.7-0.6,0.7-1.1c1.8-1,3.2-2.6,5.4-2.8c2.8-0.3,5.6-0.5,8.4,0c0.5,0.1,0.9,0.3,1.4,0.2
				c0.6-0.1,1.2,0.4,1.7,0.3c1.5-0.3,1,2.5,2.7,1.6c0.5,1.1,1.8,1.6,2.2,2.9c0.2,0.5,0.5,0.8-0.1,1.1c-0.1,0.1-0.2,0.1-0.3,0.2
				c1.4,0.9-0.5,1.9,0,2.9c0.4,0.7-0.1,1.4-0.5,2s-0.4,0.9,0.6,1c2.3,0.1,2.8,1.2,2.4,4.1c-0.8-0.7,0.3-2.2-1.2-2.7
				c-0.5,0.8,0.9,2.2-0.7,2.6c1.2,0.9,0,2.3,0.6,3.3c0.1,0.2,0.3,0.4,0.6,0.2c0.2-0.1,0.3-0.3,0.4-0.5c0-0.5,0.2-1,0.4-1.5
				c0,7.5,1.5,15.1-3.2,21.9l0,0c-0.8,0-1.3,0.2-1.5,1.1l0,0c-0.9-0.2-1.4,0.6-2.3,0.8c-4.4,1-8.6,0.5-12.9-0.5
				c-1.1-0.3-1.6-0.7-1.1-2.2c-0.9,0.9-1.4,1.2-1.9,0.2c-0.4-0.8-1.4-1.2-1.6-2.2s-0.3-2,0.1-3.1c0.4-1.2,0.2-2.6,0.9-3.7
				c-0.7-0.3-1.5-0.9-2.2-0.9c-1.3,0-1.4-0.5-1.1-1.5c0.3-0.9-0.8-1.7,0.1-2.6c0.9,0.9-0.1,2.2,0.9,3.2c0.6-1.9,1.4-3.7,2.5-5.4
				c0.4-0.6,0-0.9-0.5-1.1c-0.6-0.2-0.6,0.4-0.6,0.8c-0.1,0.9-0.1,1.9-0.9,2.7v-2.2c0-0.4,0.2-1-0.4-1c-0.5,0-0.6,0.4-0.6,0.9
				c0,0.4,0.1,0.8-0.5,1.6c-0.3-6.9-0.6-13.2,1.2-19.5C114.1,65.6,114.4,65.2,114.4,64.7z M120.7,88.7c1.1-0.3,2-0.4,2,1
				c0,1.6,0.7,2.9,1.3,4.4c0.4,0.9,0.8,1.2,1.5,0.8c2.5-1.4,5.1-0.7,7.7-0.6c0.5,0,0.9,0,1.4,0c-1.5-1.1-3.1-0.7-4.7-1
				c-0.5-0.1-1.5,0.1-1.2-0.8c0.7-2-0.5-4.4,1.2-6.2c0.3-0.2,0.1-0.5,0-0.8c-1.2-2.1-1-4.5-0.7-6.7c0.5-3,0-6.1-1.3-8.9
				c-0.7-1.6-1.9-2-3.3-1.1c-1,0.6-1.9,0.6-2.9,0.7c-1.5,0.2-3-0.4-5-0.3c1,0.9,1.9,0.6,2.6,0.7c1.1,0.3,2.7-0.4,3.4,0.4
				c0.7,0.8-0.2,2.2-0.1,3.4c0.1,1.4,0.2,2.9-1.5,3.6c2,1.6,1.1,3.8,1,5.7S123.5,87.3,120.7,88.7L120.7,88.7z M123.9,98.3
				c-1.5,0-2.7,1-3.9,1.9c-0.1,0.1-0.2,0.2-0.2,0.4c0,0.1,0.1,0.3,0.2,0.4s0.2,0.1,0.3,0.1s0.2,0,0.3-0.1
				C121.7,100,122.8,99.2,123.9,98.3L123.9,98.3z M137.1,75.6c-0.1-0.1-0.1-0.3-0.2-0.4c-1.7,0.3-3,1.3-4.4,2.1
				c0.1,0.2,0.2,0.3,0.3,0.5C134.2,77.1,135.7,76.4,137.1,75.6L137.1,75.6z M127.5,65.1c2-0.1,3-1.2,4.2-1.9
				c0.1-0.1,0.3-0.2,0.3-0.3s0-0.3-0.2-0.4c-0.3-0.2-0.5,0-0.8,0.1C130,63.4,128.9,64.1,127.5,65.1z M118.9,85.7
				c-1.4,0.7-2.9,1.4-4.3,2.1C116.3,87.5,118,87.4,118.9,85.7z M133.8,65.7v0.7c0,0.6,0,1.5,0.7,1.4c0.9-0.2,0-0.8-0.1-1.2
				c0-0.2,0-0.4,0.1-0.6c0.4-0.4,0.6-0.8,0.1-1.2c-0.2-0.1-0.4-0.1-0.6-0.1C133.6,64.8,133.9,65.4,133.8,65.7z M118.9,83.2
				c-0.1-0.8-1.4-0.9-0.8-1.9c-0.7,0.5-1.8,0.7-1.3,1.7C117.2,83.8,118.1,83.2,118.9,83.2z M116.6,98.6c1.4-0.5,1.8-1.8,1.1-2.7
				c-0.1-0.2-0.3-0.4-0.6-0.2c-0.3,0.1-0.5,0.4-0.3,0.7C117.9,97.1,117.1,97.7,116.6,98.6L116.6,98.6z M117.7,88.8
				c-1.7,0.6-0.9,1.5-0.4,2.7C117.5,90.4,117.6,89.7,117.7,88.8L117.7,88.8z M133.9,74.5c1.5-0.7,1.5-0.7,0.5-2.1
				C134.2,73.1,134.1,73.7,133.9,74.5L133.9,74.5z M132.7,80.3c0.5,0.6,1.1,1,1.9,1.1C134.8,80,134.8,80,132.7,80.3z M136.9,96.1
				c0.1-0.9,1-1.4,1-2.8C137,94.4,136.6,95.1,136.9,96.1z"/>
			<path d="M200.2,85.4c-0.3,0.6-0.3,1.3-1.3,1.5c1.5,0.2,1.9,1.1,1.8,2.4c-0.2,3.4,0,6.9-0.3,10.2c-0.1,1,0.3,2.1,0.3,3.1
				c0,0.4-0.3,0.9-0.4,0.9c-0.5-0.9-1.5,0.2-1.8-0.3s0.2-0.9,0.7-1s0.8-0.5,0.6-1.1c-0.1-0.2-0.3-0.5-0.5-0.5
				c-0.5,0.1-0.6,0.5-0.8,0.9c-0.6,1-1,2.5-2.7,1.7c-2.8,1.9-5.9,0.3-8.8,0.5c-4.1,0.2-7.9-1.9-9.9-5.4c-0.8-1.4-1.1-3-1.4-4.6
				c-1-5.1-0.4-10.1-0.3-15.4c0.6,0.7,0.4,1.3,0.4,1.9c0,0.5,0.3,0.8,0.8,0.7c0.5-0.1,0.3-0.5,0.3-0.8c0.1-1.9-0.5-3.7,0.1-5.7
				c-1.4-0.1-0.9,1.1-1.5,1.5c-0.1-1-1.3-2.6,1.3-2.4c0.6,0,0.8-1,1.8-0.6c0.5,0.2,0.2-0.8,0-1.2c-0.6-1.7-1.3-3.4-1.1-5.2
				c0.2-1.9,1.8-3.5,3.6-3.5c0.4,0,0.4-0.2,0.4-0.4c0.3-1.3,1.1-1.7,2.3-1.9c3.2-0.5,6.4-1.1,9.2,1.2c0.6,0.5,1.5,0.8,2.7,1.4
				c-0.9-1.8-2.8-1.7-3.8-3.2h6.3c0.7,0,0.8,0.5,0.8,1c0,2.3,0,4.6-0.2,6.9c-0.1,0.8-0.9,1-1.7,1c-1.8,0-3.4,0.1-5.2-0.6
				c-0.7-0.3-2.4-0.6-3.2-0.2c-0.9,0.4-1.2,1.7-1.7,2.7c-0.7,1.4-0.4,3.1-1.2,4.5c-0.2,0.4,0.3,2,0.3,3.1c0,2.5,0.9,5-0.5,7.4
				c1.5,2,0.2,4.5,1,6.7c0.5,1.3-0.1,1.4-1.1,1.4c-1.7,0.1-3.4-0.1-5,0.8c1.5,0.4,2.9,0.1,4.3,0c1.2-0.1,2.3-0.4,3.4,0.5
				c0.5,0.4,1.1,0.2,1.8,0.1c1.2-0.1,2.4,0,3.3,0.9c0.5,0.5,1.1,0.4,1.7,0.1c0.3-0.2,0.8-0.6,0.1-0.9c-1.1-0.4-1-1.2-1-2
				c-0.1-1.1-0.2-2.3-0.1-3.4c0-1.1-0.3-1.5-1.4-1.5c-1.2,0-2.3-2.4-1.8-3.5c0.2-0.4,0.6-0.6,0.9-0.4c0.6,0.6,1.2,0.1,1.8-0.1
				c0,1.3,0,2.4-1.3,3.4c1.1,0.1,2,0.2,2.4-0.7c0.3-0.6-0.3-1.5,0.3-2.2c0.4,0.5,0.3,1.2,1.1,1.5c0.2-1.3,0.4-2.7,2.1-1
				C198.5,86.3,199.3,85,200.2,85.4z M187.9,64.9c-1.3-0.9-2.5-1.9-3.8-2.8c-0.1-0.1-0.3-0.2-0.5-0.2s-0.3,0.1-0.5,0.2
				c-0.3,0.3,0,0.5,0.3,0.7C184.9,63.6,186.2,64.7,187.9,64.9z M177.6,77.9c-0.3,1.7,0.3,3.2,1,4.9C179.5,80.9,179,79.3,177.6,77.9z
				 M182.4,77.8c0.1-0.1,0.1-0.3,0.2-0.4c-1.5-0.9-3-1.9-4.8-2.2l-0.2,0.4C179.2,76.4,180.8,77.1,182.4,77.8z M181.3,65.3
				c0-0.4,0.1-1-0.5-1.2c-0.3-0.1-0.6,0-0.8,0.3c-0.3,0.5-0.3,0.9,0.4,1.1c0.5,0.2,0.4,0.5,0.1,0.8c-0.3,0.4-1,0.4-0.5,1
				c0.1,0.1,0.3,0.2,0.5,0.1c0.5-0.2,0.5-0.7,0.6-1.2C181.2,66,181.3,65.6,181.3,65.3L181.3,65.3z M179.9,80.2
				c0.6,0.5-0.4,1.3,0.4,1.4c0.7,0.1,1.3-0.5,1.8-1C181.5,79.9,180.6,80.7,179.9,80.2L179.9,80.2z M180.5,72.2
				c-0.9,1.7-0.9,1.7,0.6,2.2C181.2,73.7,180.8,73.1,180.5,72.2z M180,68.6c-0.3,0.1-0.9-0.4-0.9,0.3c0,0.3,0.1,0.9,0.5,0.6
				c0.4-0.2,1.2,0.1,1.3-0.6C180.9,68.5,180.4,68.5,180,68.6z M177.8,96.8c-0.2-0.9-0.2-2-1.4-2.7C176.6,95.4,177.4,96,177.8,96.8
				L177.8,96.8z"/>
			<path d="M259.2,121.6c-0.6,0.9-2,0.9-1.1,2.4c0.6,1-1.4,2.5-2.5,2.1c-0.4,0.4,0.7,1.2-0.4,1.3c-0.8,0-1.8,0.4-2.2-0.6
				c-0.5-1.3-1-2.6-0.8-4.1c0.1-0.4,0.1-0.7,0.6-0.7C254.8,121.6,256.8,121.2,259.2,121.6z"/>
			<path d="M200.3,82.4c-0.1-0.4-0.3-0.7-0.4-1.1c-1.3,1.6-3.4,1.5-4.6-0.1c-0.6-0.9-1.1-1-1.4,0.1c-0.2,0.8-0.9,1.2-1,2.1
				c-0.1,1-1.3-0.2-1.9,0.6c-0.3,0.3-0.1-0.6-0.4-0.9c-0.1-0.1-0.1-0.2-0.1-0.3c-0.4-2.9-0.3-3.1,2.7-3h4.8
				C200.8,79.7,200.8,79.7,200.3,82.4z"/>
			<path d="M208.4,109.7c0-1.1,1-2.4,0.6-3c-1-2,0.7-1.5,1.3-1.6c2.6-0.4,2.6-0.4,2.6,2.2C213,110.8,211.8,111.5,208.4,109.7
				L208.4,109.7z"/>
			<path d="M203.4,121.3c0.7,0,0.4,0.6,0.4,0.9c0,0.4,0,0.9-0.6,0.9c-0.2,0-0.5-0.1-0.6-0.3s-0.2-0.4-0.2-0.7
				C202.3,121.6,202.9,121.5,203.4,121.3z"/>
			<path d="M176.3,67.8c0.1,0.7,0.9,1.3,0.1,2c-0.1,0.1-0.4,0.1-0.5,0.1C175.3,69.2,176,68.6,176.3,67.8z"/>
			<path d="M197,104.1c-0.1,0.2-0.1,0.5-0.4,0.3c-0.1-0.1-0.1-0.2-0.1-0.3s0.1-0.2,0.2-0.3L197,104.1z"/>
			<path d="M201.1,127.4c0.2-0.2,0.3-0.2,0.5,0c0,0-0.1,0.2-0.2,0.3L201.1,127.4z"/>
			<path d="M218.5,55.5L218.5,55.5L218.5,55.5z"/>
			<path d="M200.2,85.5c0-0.1,0-0.2,0-0.3l0.2,0.1C200.3,85.3,200.2,85.4,200.2,85.5L200.2,85.5z"/>
			<path d="M208.4,109.7l-0.1,0.1L208.4,109.7z"/>
			<path d="M196.8,103.8c0.2,0,0.3-0.1,0.5-0.2c0,0.2-0.1,0.3-0.2,0.5C197,104,196.9,103.9,196.8,103.8z"/>
			<path d="M126.7,107.8c-0.1-0.9-0.6-1.7-0.9-2.5c0.6-0.6,0.7,0.5,1.2,0.2c0.4-0.1,0.7-0.8,1.1-0.3c0.4,0.6-0.1,1-0.5,1.5
				C127.2,107,126.9,107.4,126.7,107.8z"/>
		</g>
	</g>
</g>
</svg>
